<svg xmlns="http://www.w3.org/2000/svg" viewBox="0 0 300 300">
  <defs/>
  <g fill="none" fill-rule="evenodd">
    <path fill="#FFF" d="M0 0h300v300H0z"/>
    <path fill="#06C" fill-rule="nonzero" d="M233 69.2l66 80.3-66 81.3H67.7L.5 149.5l67.2-80.3H233zm-3.5 8.2H71.3l-61.4 72 61.4 73.8h158.2l60.2-73.7-60.2-72.1zM233 129c12.7 0 15.1 10 15.7 15.8.5 4.5.6 6.5.6 8.4v2.8H226s-.6 2.2 0 9.3c1.2 7.6 13 8.8 13-3.5h9.9c0 2.9-1.2 17-15.3 17-12.7 0-14.8-8.3-16-15.5v-.5l-.1-.4-.2-1.2-.2-4v-.6c-.2-6 .2-11.2.2-11.2S218.3 129 233 129zm-77.1 0c12.8 0 15.3 7.7 16 13.5v.4l.3 1.8v2.4h-8.8c0-.6-.2-10.6-7-10.6-.3 0-5.9-.3-6.5 8.8-.5 7.7 0 14 0 14 0 .4-.3 10.6 6 10.6 5.8 0 7-3.5 7-9.3h9.3v1.2c0 2.9-1.1 16.3-15.2 16.3-12.1 0-14.6-7.8-15.4-14.9v-.4l-.2-1v-.7c-1.2-7.6 0-16.4 0-16.4 0-.6.3-15.8 14.5-15.8zm-39 0c14.5 0 16.3 10.5 16.3 16.3v16.5c-.6 2.9-.6 16.3-15.2 16.3-13.9 0-15.6-8.5-16.3-15.8v-.5-.7c-.7-8.2 0-15.8 0-15.8s.5-16.4 15.1-16.4zm-41.5-17c3.8 0 19.2 1.3 19.2 15.8 0 12.9-7 15.2-7 15.2.4.1 5.3 1.6 6.4 11.8l.3 4.5v.7l.1 1.5v.8l.8 15.3h-9.3L84.8 154c-.2-1-1.3-7-8.9-7h-4.6v30.5h-9.4V112zm112.6-.6v21s3.4-4 9.3-4c11.8 0 11.8 14 11.7 14v35.1h-8.2v-34.7c0-1.7-.7-6.3-6.4-6.3s-5.9 6-5.9 6.4v34.6h-9.3v-66.1h8.8zm-70.6 25.1c-.6 0-6.5.4-6.5 8.8V160c0 .3-.5 10 6.5 10 5.2 0 5.8-3.6 5.8-10.6 0-1.2 0-3.5.2-6v-1l.4-6.5c0-.9-.3-9.4-6.4-9.4zm115.6.1s-6.5-1.2-6.5 11.7h12.3s1.2-11.7-5.8-11.7zm-147.7-7.7c0-9.3-11.7-8.1-14-8.1v18.7s14 1.7 14-10.6z"/>
  </g>
</svg>